<!-- Generated by IcoMoon.io -->
<svg version="1.1" xmlns="http://www.w3.org/2000/svg" width="1024" height="1024" viewBox="0 0 1024 1024">
<title></title>
<g id="icomoon-ignore">
</g>
<path fill="#0072c6" d="M1024 315.179v447.061c0 9.813-3.413 18.091-10.155 24.576-6.741 6.571-15.019 9.813-24.747 9.813h-364.672v-296.917l68.267 52.437c4.352 3.627 9.771 5.376 16.171 5.376 6.315 0 11.819-1.749 16.597-5.419l298.539-236.928zM624.427 228.949h364.672c9.003 0 16.768 2.688 23.168 8.192 6.4 5.461 9.984 12.8 10.581 21.76l-314.411 250.709-84.011-66.091v-214.571zM571.904 36.864v950.229l-571.904-98.816v-749.867l571.904-101.547zM399.147 513.877c-0.853-48.341-13.355-88.405-37.504-120.064-23.68-31.573-54.4-48.256-90.923-49.664-35.157 1.408-65.237 18.048-89.6 49.664-24.32 31.659-36.48 71.765-37.12 120.064 0.64 47.659 13.44 87.339 37.76 119.083 24.363 31.573 54.357 48.341 89.643 50.176 36.48-1.493 67.157-18.091 91.52-49.92 24.32-31.915 37.12-71.68 37.76-119.339h-1.536zM266.027 407.979c18.389 0.853 33.877 10.923 46.208 30.592 12.16 19.669 18.56 44.587 18.56 74.752 0 30.763-6.357 55.765-18.56 75.563-12.843 19.797-28.16 30.037-46.763 30.037s-33.92-9.643-46.72-29.44-18.56-44.8-18.56-74.837c0-30.080 5.76-55.083 18.56-74.24 12.117-19.2 27.563-29.44 46.123-30.763l1.152-1.664z"></path>
</svg>
